<svg width="162" height="23" viewBox="0 0 162 23" fill="none" xmlns="http://www.w3.org/2000/svg">
<g clip-path="url(#clip0_421_195)">
<path d="M31.7879 23H22.5316L17.6806 17.0095H7.04994L6.92365 23H0L0.245151 11.4324H19.7012C21.8407 11.4324 23.5345 10.4552 23.5642 8.89183C23.6013 7.13301 22.1824 6.2536 19.8126 6.2536H0.356583L4.99959 0.368301H19.3743C24.4556 0.368301 30.837 1.99183 30.7033 8.45588C30.629 11.9735 28.3929 14.8824 24.7008 15.6265C25.4585 16.1977 26.2757 17.017 27.7763 18.6029L31.7953 23H31.7879Z" fill="#6436FF"/>
<path d="M60.3664 17.1824L55.7977 23H34.269L34.7519 0.368301H60.6636L56.0577 6.2536H41.5864L41.527 8.95948H59.2447L55.1588 14.1007H41.423L41.3561 17.1824H60.3739H60.3664Z" fill="#6436FF"/>
<path d="M91.1891 17.1824L86.6203 23H75.388C67.6323 23 62.0236 18.0242 62.1647 11.4624C62.3059 4.83301 68.1152 0.368301 75.8709 0.368301H91.5531L86.9844 6.2536H75.752C72.0079 6.2536 69.1552 8.51601 69.0809 11.7631C69.0141 14.9801 71.7404 17.1748 75.5143 17.1748H91.1965L91.1891 17.1824Z" fill="black"/>
<path d="M101.797 23L106.098 17.1824H111.714C113.052 17.1824 114.619 17.1824 115.689 17.25C115.102 16.4382 114.196 15.0477 113.482 13.9654L109.597 7.97484L98.7809 22.9925H90.5869L105.363 2.52549C106.329 1.21013 107.725 -0.0150299 109.894 -0.0150299C112.064 -0.0150299 113.312 1.09739 114.255 2.52549L127.79 22.9925H101.782L101.797 23Z" fill="black"/>
<path d="M162 23H152.744L147.893 17.0095H137.262L137.136 23H130.22L130.465 11.4324H149.921C152.06 11.4324 153.754 10.4552 153.784 8.89183C153.821 7.13301 152.402 6.2536 150.032 6.2536H130.576L135.219 0.368301H149.594C154.675 0.368301 161.057 1.99183 160.923 8.45588C160.849 11.9735 158.613 14.8824 154.921 15.6265C155.678 16.1977 156.495 17.017 157.996 18.6029L162.015 23H162Z" fill="black"/>
</g>
<defs>
<clipPath id="clip0_421_195">
<rect width="162" height="23" fill="white"/>
</clipPath>
</defs>
</svg>
