<svg width="103" height="51" viewBox="0 0 103 51" fill="none" xmlns="http://www.w3.org/2000/svg">
<path d="M26.72 48.08V45.32L20.6 47C16.68 47 13.42 46.52 10.82 45.56C8.26 44.56 6.2 43.12 4.64 41.24C3.12 39.32 2.04 36.98 1.4 34.22C0.76 31.42 0.44 28.2 0.44 24.56C0.44 20.44 0.8 16.9 1.52 13.94C2.24 10.94 3.42 8.48 5.06 6.56C6.7 4.64 8.88 3.22 11.6 2.3C14.32 1.38 17.66 0.92 21.62 0.92C25.58 0.92 28.92 1.38 31.64 2.3C34.36 3.22 36.56 4.66 38.24 6.62C39.92 8.54 41.12 11 41.84 14C42.56 16.96 42.92 20.48 42.92 24.56C42.92 27.64 42.6 30.4 41.96 32.84C41.32 35.24 40.36 37.4 39.08 39.32L44.3 42.32L40.52 50.6L26.72 48.08ZM15.92 17.06V35.78H21.92C23.92 35.78 25.34 35.56 26.18 35.12C27.06 34.64 27.5 33.58 27.5 31.94V13.22H21.44C19.52 13.22 18.12 13.46 17.24 13.94C16.36 14.38 15.92 15.42 15.92 17.06ZM49.6016 15.29L47.7816 4.86C53.7549 3.08666 59.6116 2.2 65.3516 2.2C68.0582 2.2 70.5082 2.36333 72.7016 2.69C74.9416 2.97 76.8549 3.6 78.4416 4.58C80.0282 5.51333 81.2416 6.89 82.0816 8.71C82.9682 10.53 83.4116 12.98 83.4116 16.06C83.4116 18.3467 83.1316 20.3067 82.5716 21.94C82.0116 23.5267 80.9849 24.9733 79.4916 26.28C77.9982 27.5867 75.9216 28.8233 73.2616 29.99C70.6016 31.1567 67.1716 32.44 62.9716 33.84V35.8H82.7116V47H46.8016V38.25C46.8016 36.9433 46.8716 35.7533 47.0116 34.68C47.1982 33.56 47.5016 32.51 47.9216 31.53C48.3882 30.55 48.9949 29.6167 49.7416 28.73C50.5349 27.7967 51.5149 26.84 52.6816 25.86C53.3349 25.3 54.0816 24.7633 54.9216 24.25C55.8082 23.7367 56.7416 23.2467 57.7216 22.78C58.7482 22.2667 59.7749 21.7767 60.8016 21.31C61.8749 20.8433 62.8782 20.4 63.8116 19.98C64.7449 19.56 65.5849 19.1867 66.3316 18.86C67.0782 18.4867 67.7549 18.16 68.3616 17.88V14.1C67.2882 14.0067 66.2616 13.9367 65.2816 13.89C64.3482 13.7967 63.4382 13.75 62.5516 13.75C58.1649 13.75 53.8482 14.2633 49.6016 15.29ZM95.7042 34.54C97.5709 34.54 99.1109 35.1467 100.324 36.36C101.584 37.5733 102.214 39.16 102.214 41.12C102.214 43.08 101.584 44.6667 100.324 45.88C99.1109 47.0933 97.5709 47.7 95.7042 47.7C93.8376 47.7 92.2742 47.07 91.0142 45.81C89.7542 44.55 89.1242 42.9867 89.1242 41.12C89.1242 39.16 89.7542 37.5733 91.0142 36.36C92.2742 35.1467 93.8376 34.54 95.7042 34.54Z" fill="#D5D5D5"/>
</svg>
