<svg width="103" height="51" viewBox="0 0 103 51" fill="none" xmlns="http://www.w3.org/2000/svg">
<path d="M26.72 48.08V45.32L20.6 47C16.68 47 13.42 46.52 10.82 45.56C8.26 44.56 6.2 43.12 4.64 41.24C3.12 39.32 2.04 36.98 1.4 34.22C0.76 31.42 0.44 28.2 0.44 24.56C0.44 20.44 0.8 16.9 1.52 13.94C2.24 10.94 3.42 8.48 5.06 6.56C6.7 4.64 8.88 3.22 11.6 2.3C14.32 1.38 17.66 0.92 21.62 0.92C25.58 0.92 28.92 1.38 31.64 2.3C34.36 3.22 36.56 4.66 38.24 6.62C39.92 8.54 41.12 11 41.84 14C42.56 16.96 42.92 20.48 42.92 24.56C42.92 27.64 42.6 30.4 41.96 32.84C41.32 35.24 40.36 37.4 39.08 39.32L44.3 42.32L40.52 50.6L26.72 48.08ZM15.92 17.06V35.78H21.92C23.92 35.78 25.34 35.56 26.18 35.12C27.06 34.64 27.5 33.58 27.5 31.94V13.22H21.44C19.52 13.22 18.12 13.46 17.24 13.94C16.36 14.38 15.92 15.42 15.92 17.06ZM81.0316 47H67.0316V40H45.4716V31.25L56.2516 3.25H81.0316V27.96H85.5816V40H81.0316V47ZM67.0316 13.75H66.3316L60.1016 27.96H67.0316V13.75ZM95.7042 34.54C97.5709 34.54 99.1109 35.1467 100.324 36.36C101.584 37.5733 102.214 39.16 102.214 41.12C102.214 43.08 101.584 44.6667 100.324 45.88C99.1109 47.0933 97.5709 47.7 95.7042 47.7C93.8376 47.7 92.2742 47.07 91.0142 45.81C89.7542 44.55 89.1242 42.9867 89.1242 41.12C89.1242 39.16 89.7542 37.5733 91.0142 36.36C92.2742 35.1467 93.8376 34.54 95.7042 34.54Z" fill="#D5D5D5"/>
</svg>
